<svg xmlns="http://www.w3.org/2000/svg" viewBox="0 0 1200 760" role="img" aria-labelledby="title desc">
  <title id="title">GT Fleet 365 cover</title>
  <desc id="desc">Copertina illustrata per il progetto GT Fleet 365.</desc>
  <defs>
    <linearGradient id="bg" x1="0" y1="0" x2="1" y2="1">
      <stop offset="0%" stop-color="#071718"/>
      <stop offset="58%" stop-color="#0d5b57"/>
      <stop offset="100%" stop-color="#5ad9b3"/>
    </linearGradient>
    <linearGradient id="screen" x1="0" y1="0" x2="1" y2="1">
      <stop offset="0%" stop-color="#edfdf8"/>
      <stop offset="100%" stop-color="#cbf4eb"/>
    </linearGradient>
  </defs>
  <rect width="1200" height="760" rx="48" fill="url(#bg)"/>
  <circle cx="1040" cy="170" r="120" fill="#ffffff" fill-opacity=".07"/>
  <rect x="804" y="86" width="220" height="488" rx="34" fill="#061214" stroke="#90ffdc" stroke-opacity=".35"/>
  <rect x="824" y="114" width="180" height="432" rx="24" fill="url(#screen)"/>
  <rect x="856" y="152" width="116" height="24" rx="12" fill="#44c8a7"/>
  <path d="M864 372c34-50 77-83 132-92" fill="none" stroke="#0b9d7d" stroke-width="12" stroke-linecap="round"/>
  <circle cx="864" cy="372" r="18" fill="#11886e"/>
  <circle cx="996" cy="280" r="18" fill="#11886e"/>
  <circle cx="918" cy="230" r="15" fill="#7be0c6"/>
  <rect x="856" y="422" width="116" height="18" rx="9" fill="#98decf"/>
  <rect x="856" y="456" width="88" height="18" rx="9" fill="#98decf"/>
  <text x="92" y="164" fill="#b4f6e7" font-family="Arial, Helvetica, sans-serif" font-size="28" letter-spacing="5">APP MOBILE</text>
  <text x="92" y="284" fill="#ffffff" font-family="Arial, Helvetica, sans-serif" font-size="80" font-weight="700">GT FLEET 365</text>
  <text x="92" y="360" fill="#d9fff5" font-family="Arial, Helvetica, sans-serif" font-size="31">Tracking, sicurezza e controllo della flotta</text>
  <rect x="92" y="446" width="218" height="54" rx="27" fill="#ffffff" fill-opacity=".12"/>
  <text x="201" y="481" text-anchor="middle" fill="#ffffff" font-family="Arial, Helvetica, sans-serif" font-size="24">Fleet</text>
  <rect x="328" y="446" width="188" height="54" rx="27" fill="#ffffff" fill-opacity=".12"/>
  <text x="422" y="481" text-anchor="middle" fill="#ffffff" font-family="Arial, Helvetica, sans-serif" font-size="24">Tracking</text>
  <rect x="534" y="446" width="188" height="54" rx="27" fill="#ffffff" fill-opacity=".12"/>
  <text x="628" y="481" text-anchor="middle" fill="#ffffff" font-family="Arial, Helvetica, sans-serif" font-size="24">Security</text>
</svg>
