<svg xmlns="http://www.w3.org/2000/svg" viewBox="0 0 1200 760" role="img" aria-labelledby="title desc">
  <title id="title">MySarma Welfare cover</title>
  <desc id="desc">Copertina illustrata per il progetto MySarma Welfare.</desc>
  <defs>
    <linearGradient id="bg" x1="0" y1="0" x2="1" y2="1">
      <stop offset="0%" stop-color="#1a0f2a"/>
      <stop offset="55%" stop-color="#5f1db5"/>
      <stop offset="100%" stop-color="#ff8bd5"/>
    </linearGradient>
    <linearGradient id="card" x1="0" y1="0" x2="1" y2="1">
      <stop offset="0%" stop-color="#fff6ff"/>
      <stop offset="100%" stop-color="#ffe1f2"/>
    </linearGradient>
  </defs>
  <rect width="1200" height="760" rx="48" fill="url(#bg)"/>
  <circle cx="1025" cy="170" r="110" fill="#ffffff" fill-opacity=".08"/>
  <circle cx="210" cy="640" r="150" fill="#ffffff" fill-opacity=".06"/>
  <rect x="810" y="86" width="238" height="490" rx="34" fill="#140b24" stroke="#ffb6e5" stroke-opacity=".4"/>
  <rect x="830" y="112" width="198" height="438" rx="24" fill="url(#card)"/>
  <rect x="864" y="154" width="130" height="26" rx="13" fill="#f39bd7"/>
  <rect x="864" y="220" width="130" height="82" rx="18" fill="#ffffff"/>
  <rect x="864" y="330" width="130" height="82" rx="18" fill="#f8d0ea"/>
  <rect x="864" y="440" width="130" height="46" rx="23" fill="#8b39de"/>
  <text x="92" y="164" fill="#f7c9ee" font-family="Arial, Helvetica, sans-serif" font-size="28" letter-spacing="5">APP MOBILE</text>
  <text x="92" y="284" fill="#ffffff" font-family="Arial, Helvetica, sans-serif" font-size="72" font-weight="700">MySarma Welfare</text>
  <text x="92" y="356" fill="#ffe4f4" font-family="Arial, Helvetica, sans-serif" font-size="30">Credito welfare, voucher e rimborsi</text>
  <rect x="92" y="446" width="214" height="54" rx="27" fill="#ffffff" fill-opacity=".14"/>
  <text x="199" y="481" text-anchor="middle" fill="#ffffff" font-family="Arial, Helvetica, sans-serif" font-size="24">Welfare</text>
  <rect x="324" y="446" width="170" height="54" rx="27" fill="#ffffff" fill-opacity=".14"/>
  <text x="409" y="481" text-anchor="middle" fill="#ffffff" font-family="Arial, Helvetica, sans-serif" font-size="24">Voucher</text>
  <rect x="512" y="446" width="174" height="54" rx="27" fill="#ffffff" fill-opacity=".14"/>
  <text x="599" y="481" text-anchor="middle" fill="#ffffff" font-family="Arial, Helvetica, sans-serif" font-size="24">Rimborsi</text>
</svg>
